<?xml version="1.0" encoding="utf-8"?>
<!-- Generator: Adobe Illustrator 27.3.1, SVG Export Plug-In . SVG Version: 6.00 Build 0)  -->
<svg version="1.1" id="Layer_1" xmlns="http://www.w3.org/2000/svg" xmlns:xlink="http://www.w3.org/1999/xlink" x="0px" y="0px"
	 viewBox="0 0 250 250" style="enable-background:new 0 0 250 250;" xml:space="preserve">
<style type="text/css">
	.st0{fill:#0E1019;}
	.st1{fill:url(#SVGID_1_);}
	.st2{fill:url(#SVGID_00000160180028802229904460000002701475935806848913_);}
	.st3{fill:url(#SVGID_00000067952530625363311520000006298685476660593028_);}
</style>
<g>
	<path class="st0" d="M189.8,250H60.2C27,250,0,223,0,189.8V60.2C0,27,27,0,60.2,0h129.5C223,0,250,27,250,60.2v129.5
		C250,223,223,250,189.8,250z"/>
	<g>
		<linearGradient id="SVGID_1_" gradientUnits="userSpaceOnUse" x1="70.9365" y1="208.9732" x2="70.9365" y2="179.5383">
			<stop  offset="0" style="stop-color:#FFFFFF"/>
			<stop  offset="1" style="stop-color:#B3B3B3"/>
		</linearGradient>
		<path class="st1" d="M44.9,160.3v49.4h31.3c11.5,0,20.9-9.3,20.9-20.9v-29.9L44.9,160.3z"/>
		
			<linearGradient id="SVGID_00000029033506478388814480000006633766218340596108_" gradientUnits="userSpaceOnUse" x1="70.9365" y1="112.1165" x2="70.9365" y2="91.8871">
			<stop  offset="0" style="stop-color:#FFFFFF"/>
			<stop  offset="1" style="stop-color:#B3B3B3"/>
		</linearGradient>
		<path style="fill:url(#SVGID_00000029033506478388814480000006633766218340596108_);" d="M44.9,72.5v40.8h31.3
			c11.5,0,20.9-9.3,20.9-20.9V57L44.9,72.5z"/>
		
			<linearGradient id="SVGID_00000041254085910112173200000010225178738730348979_" gradientUnits="userSpaceOnUse" x1="44.8718" y1="120.2356" x2="205.1282" y2="120.2356">
			<stop  offset="0" style="stop-color:#5FCAE7"/>
			<stop  offset="0.1117" style="stop-color:#65B1D8"/>
			<stop  offset="0.2609" style="stop-color:#6A96C8"/>
			<stop  offset="0.4115" style="stop-color:#6D81BB"/>
			<stop  offset="0.5611" style="stop-color:#6E71B2"/>
			<stop  offset="0.7096" style="stop-color:#6F66AC"/>
			<stop  offset="0.8565" style="stop-color:#705FA9"/>
			<stop  offset="1" style="stop-color:#705CA8"/>
		</linearGradient>
		<path style="fill:url(#SVGID_00000041254085910112173200000010225178738730348979_);" d="M65.7,92.4c-11.5,0-20.9,9.3-20.9,20.9
			V61.2c0-11.5,9.3-20.9,20.9-20.9h8.4H97h38.6c38.4,0,69.5,31.1,69.5,69.5c0,38.4-31.1,69.5-69.5,69.5H97H65.7
			c-11.5,0-20.9,9.3-20.9,20.9V148c0-11.5,9.3-20.9,20.9-20.9H97h38.6c9.6,0,17.4-7.8,17.4-17.4c0-9.6-7.8-17.4-17.4-17.4H65.7z"/>
	</g>
</g>
</svg>
